<?xml version="1.0" encoding="UTF-8" standalone="no"?>
<svg xmlns:dc="http://purl.org/dc/elements/1.1/" xmlns:rdf="http://www.w3.org/1999/02/22-rdf-syntax-ns#" xmlns:svg="http://www.w3.org/2000/svg" xmlns="http://www.w3.org/2000/svg" width="400" height="400">
  <g transform="translate(200, 200)">
    <path d="M1.2246467991473532e-14,-200A200,200 0 0,1 112.35088566415415,165.46080650861146L56.175442832077074,82.73040325430573A100,100 0 0,0 6.123233995736766e-15,-100Z" fill="#1f609d"></path>
    <path d="M112.35088566415415,165.46080650861146A200,200 0 0,1 -148.27365233972364,134.21968567180733L-74.13682616986182,67.10984283590366A100,100 0 0,0 56.175442832077074,82.73040325430573Z" fill="#7e0021"></path>
    <path d="M-148.27365233972364,134.21968567180733A200,200 0 0,1 -198.06589329450037,-27.747106397813713L-99.03294664725018,-13.873553198906857A100,100 0 0,0 -74.13682616986182,67.10984283590366Z" fill="#538e42"></path>
    <path d="M-198.06589329450037,-27.747106397813713A200,200 0 0,1 -105.6839156905238,-169.79667241827286L-52.8419578452619,-84.89833620913643A100,100 0 0,0 -99.03294664725018,-13.873553198906857Z" fill="#ffd320"></path>
    <path d="M-105.6839156905238,-169.79667241827286A200,200 0 0,1 -31.679604881442785,-197.47506838726673L-15.839802440721392,-98.73753419363337A100,100 0 0,0 -52.8419578452619,-84.89833620913643Z" fill="#83caff"></path>
    <path d="M-31.679604881442785,-197.47506838726673A200,200 0 0,1 1.4089627996560445e-13,-200L7.044813998280223e-14,-100A100,100 0 0,0 -15.839802440721392,-98.73753419363337Z" fill="#9467bd"></path>
  </g>
</svg>
