<?xml version="1.0" encoding="UTF-8" standalone="no"?>
<svg xmlns:dc="http://purl.org/dc/elements/1.1/" xmlns:rdf="http://www.w3.org/1999/02/22-rdf-syntax-ns#" xmlns:svg="http://www.w3.org/2000/svg" xmlns="http://www.w3.org/2000/svg" width="400" height="400">
  <defs>
    <radialGradient id="grad1" cx="50%" cy="50%" fx="50%" fy="50%">
      <stop offset="0%" stop-color="#d7d7fa" />
      <stop offset="100%" stop-color="#4718cd" />
    </radialGradient>
  </defs>
  <g transform="translate(200,200)">
    <circle fill="url(#grad1)" stroke="black" stroke-width="5" r="190" />
  </g>
  <g transform="scale(0.6,0.6),translate(73,0)" fill="black">
    <path d="m 170.12051,426.81001 37.30257,0 0,46.67415 -37.30257,0 0,-46.67415 z m 36.20003,-27.01221 -35.09749,0 0,-28.2985 q 0,-18.5594 5.14518,-30.50358 5.14519,-11.94417 21.68327,-27.74723 l 16.53809,-16.35433 q 10.47412,-9.73909 15.06803,-18.37565 4.77767,-8.63655 4.77767,-17.64062 0,-16.35433 -12.12793,-26.46094 -11.94417,-10.1066 -31.78988,-10.1066 -14.51676,0 -31.05484,6.43147 -16.35433,6.43148 -34.17871,18.74317 l 0,-34.54622 q 17.27311,-10.47413 34.91373,-15.61931 17.82438,-5.14518 36.7513,-5.14518 33.8112,0 54.20817,17.82438 20.58073,17.82438 20.58073,47.04167 0,13.96549 -6.61524,26.64469 -6.61523,12.49544 -23.15332,28.2985 l -16.17057,15.80306 q -8.63655,8.63655 -12.31168,13.59798 -3.49138,4.77767 -4.96143,9.37158 -1.10254,3.85889 -1.65381,9.37158 -0.55127,5.5127 -0.55127,15.06804 l 0,22.60204 z" />
    <path d="m 342.30036,426.81001 38.77262,0 0,46.67415 -38.77262,0 0,-46.67415 z m 0,-147.92398 38.77262,0 0,46.67415 -38.77262,0 0,-46.67415 z" />
  </g>
</svg>
